<svg width="18" height="24" viewBox="0 0 18 24" fill="none" xmlns="http://www.w3.org/2000/svg">
<path d="M8.6848 0C6.38229 0.00294897 4.17485 0.997261 2.54673 2.76482C0.9186 4.53238 0.00272558 6.92886 9.23974e-06 9.42857C-0.00274849 11.4713 0.611877 13.4587 1.7496 15.0857C1.7496 15.0857 1.98646 15.4243 2.02515 15.4731L8.6848 24L15.3476 15.4689C15.3824 15.4234 15.62 15.0857 15.62 15.0857L15.6208 15.0831C16.758 13.4568 17.3723 11.4704 17.3696 9.42857C17.3669 6.92886 16.451 4.53238 14.8229 2.76482C13.1948 0.997261 10.9873 0.00294897 8.6848 0ZM8.6848 12.8571C8.06019 12.8571 7.4496 12.6561 6.93025 12.2793C6.41091 11.9026 6.00612 11.3671 5.76709 10.7406C5.52806 10.1141 5.46552 9.42477 5.58738 8.75969C5.70923 8.09461 6.01002 7.4837 6.45168 7.0042C6.89335 6.52471 7.45607 6.19817 8.06869 6.06588C8.6813 5.93359 9.31629 6.00148 9.89336 6.26098C10.4704 6.52048 10.9637 6.95993 11.3107 7.52376C11.6577 8.08759 11.8429 8.75046 11.8429 9.42857C11.8419 10.3375 11.5088 11.2089 10.9168 11.8517C10.3247 12.4944 9.52207 12.856 8.6848 12.8571Z" fill="#FF7F2A"/>
</svg>
