<svg width="23" height="24" viewBox="0 0 23 24" fill="none" xmlns="http://www.w3.org/2000/svg">
<path d="M21.7005 18.7998L16.6561 13.8205C16.4176 13.5853 16.1043 13.4598 15.7822 13.4706C15.4602 13.4814 15.1546 13.6276 14.93 13.8785L11.9604 17.1939C11.2456 17.0457 9.80864 16.5594 8.32946 14.9576C6.85027 13.3504 6.4023 11.7863 6.26952 11.0157L9.32096 7.79046C9.55228 7.54679 9.6872 7.21496 9.69716 6.86521C9.70712 6.51546 9.59134 6.17522 9.37432 5.9165L4.78909 0.441468C4.57198 0.181938 4.27023 0.0245142 3.94793 0.00262946C3.62563 -0.0192553 3.30816 0.0961234 3.06296 0.324261L0.370147 2.83141C0.155604 3.06517 0.0275505 3.37628 0.0102773 3.70574C-0.0083366 4.04254 -0.363242 12.0207 5.3351 18.2097C10.3063 23.6053 16.5332 24 18.2482 24C18.4989 24 18.6527 23.9919 18.6937 23.9892C18.9971 23.9708 19.2835 23.8311 19.4978 23.5972L21.8059 20.6724C22.0169 20.4071 22.124 20.0627 22.1043 19.7128C22.0846 19.3629 21.9396 19.0353 21.7005 18.7998Z" fill="#FF7F2A"/>
</svg>
