<svg width="20" height="18" viewBox="0 0 20 18" fill="none" xmlns="http://www.w3.org/2000/svg">
<path d="M9.25954 1.50639C9.51554 0.831203 10.4843 0.831203 10.7411 1.50639L12.3971 6.09352C12.4549 6.24295 12.5566 6.37134 12.6889 6.46175C12.8211 6.55216 12.9777 6.60034 13.1379 6.59992H17.2074C17.9594 6.59992 18.2874 7.5359 17.6962 7.99429L14.8003 10.5999C14.6705 10.6996 14.5757 10.8378 14.5295 10.9948C14.4832 11.1517 14.4878 11.3193 14.5427 11.4734L15.6002 15.9558C15.8578 16.6758 15.0243 17.2942 14.3939 16.851L10.4603 14.355C10.3256 14.2603 10.165 14.2095 10.0003 14.2095C9.83568 14.2095 9.67505 14.2603 9.54034 14.355L5.6068 16.851C4.97721 17.2942 4.14282 16.675 4.40042 15.9558L5.458 11.4734C5.51286 11.3193 5.51749 11.1517 5.47121 10.9948C5.42493 10.8378 5.33013 10.6996 5.2004 10.5999L2.30445 7.99429C1.71246 7.5359 2.04205 6.59992 2.79244 6.59992H6.86198C7.02221 6.60045 7.17883 6.55232 7.31111 6.4619C7.44339 6.37147 7.54509 6.24301 7.60277 6.09352L9.25874 1.50639H9.25954Z" stroke="#FF7F2A" stroke-width="2" stroke-linecap="round" stroke-linejoin="round"/>
</svg>
